<svg id="Layer_1" data-name="Layer 1" xmlns="http://www.w3.org/2000/svg" viewBox="0 0 800 800"><defs><style>.cls-1{fill:#fff;}</style></defs><title>cart_empty</title><path class="cls-1" d="M326.1,561.73a48.61,48.61,0,1,1-48.61,48.6A48.59,48.59,0,0,1,326.1,561.73Z"/><path class="cls-1" d="M538.23,561.73a48.61,48.61,0,1,1-48.6,48.6A48.61,48.61,0,0,1,538.23,561.73Z"/><path class="cls-1" d="M662,295.29H362s-17.73,4-17.73,23.51S362,344,362,344H631l-15.12,51.14H351.51S335,398.87,335,417s16.52,23.51,16.52,23.51h251l-14.19,47.84h-273L297.23,344l-5.88-48.68s-5.28-45-8.26-63.52-49.61-42-149.87-89.27c-23.58-9.9-43.3,33.24,0,55.81l79.06,36.93s18.39,10.69,20,25,33.67,252.23,33.67,252.23,1.28,33.11,31.35,33.11H599c25.25,0,30.16-26.39,30.16-26.39l59.79-177.56S706.64,295.29,662,295.29Z"/></svg>